<?xml version="1.0" encoding="UTF-8"?>
<svg version="1.1" xmlns="http://www.w3.org/2000/svg" width="256" height="256">
<path d="M0 0 C5.84858328 2.61389197 11.3284716 5.8799984 16.79589844 9.203125 C17.61348633 9.69490234 18.43107422 10.18667969 19.2734375 10.69335938 C37.68271178 21.83945738 55.48742163 34.31456824 71.31933594 48.9375 C73.36055641 50.80486258 75.43122322 52.61620703 77.52636719 54.421875 C82.10811537 58.42208538 86.43592005 62.65106703 90.73339844 66.953125 C91.52681641 67.74734863 92.32023438 68.54157227 93.13769531 69.35986328 C97.99180188 74.264908 102.56067566 79.21356765 106.80761719 84.65625 C108.99309297 87.45571996 111.2956973 90.13300872 113.60839844 92.828125 C127.73429534 109.77920129 139.3618936 128.8049296 149.79589844 148.203125 C150.27414063 149.07839844 150.75238281 149.95367187 151.24511719 150.85546875 C154.27483015 156.9042641 155.10561936 162.83997187 153.13574219 169.40234375 C150.47696298 175.44502377 146.07647817 179.25251002 140.48339844 182.578125 C135.54412371 183.72679354 129.95563332 184.3074121 125.35595703 181.95556641 C119.773505 180.77567907 115.4762442 182.93714834 110.23730469 184.8984375 C109.08638336 185.31279053 107.93546204 185.72714355 106.74966431 186.15405273 C103.60385163 187.2905584 100.46480213 188.44305857 97.32757187 189.60288239 C94.00789829 190.82551149 90.68045002 192.02660547 87.35375977 193.22998047 C81.16362962 195.47263821 74.98012743 197.73295922 68.79941654 200.00143242 C62.05516652 202.47637224 55.30500197 204.93496015 48.55371094 207.390625 C46.27798935 208.21849089 44.00227316 209.04637164 41.7265625 209.87426758 C40.61301392 210.27932526 39.49946533 210.68438293 38.35217285 211.10171509 C34.96783192 212.33379203 31.5844355 213.56843502 28.20117188 214.8034668 C9.79696272 221.51503054 -8.67168101 228.03509744 -27.15966797 234.51171875 C-44.6190015 240.62976255 -62.03292791 246.865859 -79.41577148 253.19775391 C-84.87180634 255.16500297 -89.40926343 255.87888088 -95.20410156 255.203125 C-98.70662167 253.15998827 -100.97771858 251.10525267 -102.20410156 247.203125 C-102.53342589 241.84705379 -101.61539323 237.56176665 -99.78222656 232.5859375 C-99.52680588 231.86563354 -99.27138519 231.14532959 -99.00822449 230.40319824 C-98.16745926 228.040893 -97.311001 225.68462065 -96.45410156 223.328125 C-95.85304281 221.6505428 -95.2528778 219.97264013 -94.65356445 218.29443359 C-93.13256696 214.04471528 -91.5981915 209.79998476 -90.0581665 205.55712891 C-89.2810183 203.41512562 -88.50626491 201.27228149 -87.73291016 199.12890625 C-85.13135263 191.92035177 -82.5091881 184.71947496 -79.87786865 177.52174377 C-75.76652541 166.27398794 -71.67320507 155.01966481 -67.57910156 143.765625 C-67.15282471 142.5941391 -66.72654785 141.4226532 -66.28735352 140.21566772 C-61.60691804 127.35097199 -56.93732119 114.48250317 -52.30175781 101.6015625 C-51.90962601 100.51198242 -51.5174942 99.42240234 -51.11347961 98.29980469 C-49.20647346 92.99839057 -47.30273988 87.69582602 -45.40356445 82.39160156 C-42.20122994 73.4569794 -38.97782795 64.53499166 -35.60253906 55.6640625 C-35.06800907 54.24947045 -34.53358092 52.83483991 -33.99926758 51.42016602 C-33.05356388 48.91813924 -32.08869064 46.42694414 -31.11010742 43.93725586 C-28.32703036 36.59432878 -27.71436638 32.67233055 -30.20410156 25.203125 C-30.90759871 18.06435883 -30.56451582 12.08834669 -26.20410156 6.203125 C-19.10881769 -1.23364313 -9.77674633 -3.53470315 0 0 Z " fill="#EBB77F" transform="translate(102.2041015625,0.796875)"/>
<path d="M0 0 C5.84858328 2.61389197 11.3284716 5.8799984 16.79589844 9.203125 C18.02228027 9.94079102 18.02228027 9.94079102 19.2734375 10.69335938 C37.68271178 21.83945738 55.48742163 34.31456824 71.31933594 48.9375 C73.36055641 50.80486258 75.43122322 52.61620703 77.52636719 54.421875 C82.10811537 58.42208538 86.43592005 62.65106703 90.73339844 66.953125 C91.52681641 67.74734863 92.32023437 68.54157227 93.13769531 69.35986328 C97.99180188 74.264908 102.56067566 79.21356765 106.80761719 84.65625 C108.99309297 87.45571996 111.2956973 90.13300872 113.60839844 92.828125 C127.73429534 109.77920129 139.3618936 128.8049296 149.79589844 148.203125 C150.27414063 149.07839844 150.75238281 149.95367187 151.24511719 150.85546875 C154.27483015 156.9042641 155.10561936 162.83997187 153.13574219 169.40234375 C150.47696298 175.44502377 146.07647817 179.25251002 140.48339844 182.578125 C134.99765367 183.8538796 129.77379849 183.94950238 124.48339844 181.953125 C119.61338061 178.7819506 116.35661301 176.04401013 113.59667969 170.87109375 C113.03271484 169.83291504 112.46875 168.79473633 111.88769531 167.72509766 C111.30052734 166.62472168 110.71335938 165.5243457 110.10839844 164.390625 C104.76681511 154.63431476 99.26818386 145.24501805 92.79589844 136.203125 C92.25964844 135.44805664 91.72339844 134.69298828 91.17089844 133.91503906 C84.20138482 124.1413852 77.06773284 114.91190512 68.79589844 106.203125 C67.70599473 104.9379221 66.62229283 103.66734093 65.54589844 102.390625 C56.82533092 92.39488016 47.21944587 83.38900872 36.79589844 75.203125 C35.68941182 74.28664791 34.58537535 73.36720717 33.48339844 72.4453125 C19.38873294 60.74459197 3.97647782 51.16166345 -12.05029297 42.3359375 C-25.55341388 34.83390849 -25.55341388 34.83390849 -29.20410156 29.015625 C-31.14016202 21.63439449 -31.37714195 14.67012397 -27.47753906 7.921875 C-20.90285713 -0.95192884 -10.34817387 -3.74129813 0 0 Z " fill="#E9A660" transform="translate(102.2041015625,0.796875)"/>
<path d="M0 0 C0.66 0 1.32 0 2 0 C2.15855469 0.66386719 2.31710938 1.32773438 2.48046875 2.01171875 C4.52688265 9.75643434 7.28223504 13.41223687 14.125 17.625 C16.75881406 19.15747217 19.40638326 20.66418977 22.05859375 22.16455078 C56.942421 41.92651098 89.90274815 67.37991765 116 98 C116.81210938 98.93457031 117.62421875 99.86914062 118.4609375 100.83203125 C164 153.52343465 164 153.52343465 164 175 C155.51029289 175.50938243 150.47424926 173.69521357 144 168 C142.3059082 165.48901367 142.3059082 165.48901367 140.80078125 162.66796875 C140.23681641 161.62979004 139.67285156 160.59161133 139.09179688 159.52197266 C138.50462891 158.42159668 137.91746094 157.3212207 137.3125 156.1875 C131.97091667 146.43118976 126.47228542 137.04189305 120 128 C119.46375 127.24493164 118.9275 126.48986328 118.375 125.71191406 C111.40548638 115.9382602 104.27183441 106.70878012 96 98 C94.91009629 96.7347971 93.8263944 95.46421593 92.75 94.1875 C84.02943248 84.19175516 74.42354743 75.18588372 64 67 C62.89351338 66.08352291 61.78947691 65.16408217 60.6875 64.2421875 C46.5928345 52.54146697 31.18057939 42.95853845 15.15380859 34.1328125 C1.65068768 26.63078349 1.65068768 26.63078349 -2 20.8125 C-3.68468618 14.38963392 -4.02478736 8.51926892 -1.5 2.3125 C-1.005 1.549375 -0.51 0.78625 0 0 Z " fill="#E69642" transform="translate(75,9)"/>
<path d="M0 0 C6.79620852 4.23207124 12.27403424 9.36245154 14.7109375 17.18359375 C16.67581142 27.17170285 14.68304697 35.62239103 9.3828125 44.140625 C3.29745901 50.05694089 -3.62563968 53.33392727 -12.1171875 53.703125 C-20.17919313 53.50622391 -26.3488066 51.11202056 -32.2421875 45.578125 C-39.12379996 37.9442715 -40.78372428 31.41592596 -40.3125 21.1796875 C-39.69839153 15.86818797 -38.21665821 12.44270323 -34.8671875 8.328125 C-34.35929687 7.68359375 -33.85140625 7.0390625 -33.328125 6.375 C-24.82958649 -3.21102922 -11.43984785 -5.82243152 0 0 Z " fill="#DC4955" transform="translate(133.8671875,146.671875)"/>
<path d="M0 0 C8.6156827 0.08493006 14.60603104 2.87033859 20.9375 8.625 C27.10003208 15.41398333 28.76960347 22.13622957 28.44140625 31.23046875 C27.45087153 39.45088574 23.1773015 45.90386182 17.0625 51.375 C10.65138116 55.59219984 3.73235389 57.31198041 -3.9375 56.375 C-11.2412518 54.44745978 -16.7706159 50.85216696 -21.9375 45.375 C-22.9375 43.375 -22.9375 43.375 -21.90527344 39.93847656 C-21.37723183 38.46127538 -20.84044711 36.98718222 -20.296875 35.515625 C-20.01402649 34.73362732 -19.73117798 33.95162964 -19.4397583 33.14593506 C-18.83794566 31.48693202 -18.2324274 29.82926932 -17.62353516 28.17285156 C-16.6974651 25.65212461 -15.78331368 23.12733007 -14.87109375 20.6015625 C-14.28456002 18.98932637 -13.69734183 17.37733905 -13.109375 15.765625 C-12.83736267 15.01541077 -12.56535034 14.26519653 -12.28509521 13.49224854 C-7.39172399 0.224253 -7.39172399 0.224253 0 0 Z " fill="#DC4955" transform="translate(31.9375,171.625)"/>
<path d="M0 0 C7.72411918 0.08045957 14.25456344 3.12721271 20.13671875 8.078125 C26.2706664 14.69104589 29.03197017 22.3243054 28.69921875 31.30859375 C27.43374118 39.04636119 23.52302973 46.53857665 17.15625 51.2578125 C9.91653838 55.59589367 2.65179099 57.98584591 -5.8125 56.4375 C-18.10897635 51.73417152 -18.10897635 51.73417152 -20.8125 47.4375 C-20.36477068 41.68778596 -18.66099179 36.6484256 -16.6875 31.2578125 C-16.22706299 29.97775833 -16.22706299 29.97775833 -15.75732422 28.67184448 C-15.11156229 26.88067178 -14.46258145 25.09065664 -13.81054688 23.30175781 C-12.80895349 20.55276618 -11.81775221 17.80019427 -10.828125 15.046875 C-10.19851712 13.30447041 -9.56832946 11.56227519 -8.9375 9.8203125 C-8.63956543 8.99435577 -8.34163086 8.16839905 -8.03466797 7.31741333 C-5.4553381 0.25754815 -5.4553381 0.25754815 0 0 Z " fill="#DC4A55" transform="translate(71.8125,56.5625)"/>
<path d="M0 0 C0.45890625 0.40992187 0.9178125 0.81984375 1.390625 1.2421875 C2.31101562 2.05042969 2.31101562 2.05042969 3.25 2.875 C3.85328125 3.40867187 4.4565625 3.94234375 5.078125 4.4921875 C6.97418746 5.9797487 8.81290005 7.00322436 11 8 C9.58329202 15.15910383 7.43445728 21.82518478 4.9375 28.67578125 C4.54554443 29.76336227 4.15358887 30.8509433 3.74975586 31.97148132 C2.92528633 34.25577115 2.09817497 36.53910901 1.26855469 38.8215332 C-0.00162438 42.31697016 -1.26318913 45.81542502 -2.5234375 49.31445312 C-3.32762377 51.53924374 -4.13229438 53.76385936 -4.9375 55.98828125 C-5.31463135 57.03309158 -5.6917627 58.07790192 -6.08032227 59.15437317 C-6.43408936 60.12605942 -6.78785645 61.09774567 -7.15234375 62.09887695 C-7.46163818 62.95109329 -7.77093262 63.80330963 -8.08959961 64.68135071 C-8.93711037 66.83982982 -9.96295549 68.92591098 -11 71 C-15.62 71 -20.24 71 -25 71 C-22.63107067 62.76531368 -19.81848942 54.73141649 -16.89453125 46.6796875 C-16.40533725 45.3264302 -15.91638374 43.97308594 -15.42765808 42.61965942 C-14.15270679 39.09092946 -12.87453393 35.56337518 -11.59564209 32.03607178 C-10.2863888 28.42320206 -8.98024713 24.80920784 -7.67382812 21.1953125 C-5.11889636 14.12911619 -2.56055356 7.06416138 0 0 Z " fill="#E9A761" transform="translate(50,102)"/>
<path d="M0 0 C-0.33 1.155 -0.66 2.31 -1 3.5 C-2.9365039 11.35667297 -2.53568662 19.02871965 1.1875 26.328125 C5.1332706 32.80433544 9.80635346 36.60211782 17 39 C19.65693998 39.096616 22.28140855 39.13926728 24.9375 39.125 C25.65357422 39.12886719 26.36964844 39.13273437 27.10742188 39.13671875 C30.54178156 39.13035293 33.71864926 39.07950442 37 38 C35.07350257 44.03567546 31.31521164 45.99772175 26 49 C19.0770045 52.31099785 10.9663784 51.99118108 3.8125 49.5 C-3.13162514 46.36465574 -9.26384128 40.56394687 -12.37109375 33.52734375 C-14.23994846 26.01710152 -14.52723442 16.8367025 -10.875 9.875 C-4.22216891 0 -4.22216891 0 0 0 Z " fill="#D8313D" transform="translate(107,149)"/>
<path d="M0 0 C0.99128906 0.00257812 1.98257813 0.00515625 3.00390625 0.0078125 C3.99261719 0.00523438 4.98132813 0.00265625 6 0 C8.56640625 0.1328125 8.56640625 0.1328125 10.56640625 1.1328125 C9.50514321 8.44373569 7.26071079 14.84308446 4.53051758 21.65576172 C1.56440865 29.05996362 -1.15911246 36.54194849 -3.85595703 44.04785156 C-4.17806152 44.94213867 -4.50016602 45.83642578 -4.83203125 46.7578125 C-5.11739746 47.55445313 -5.40276367 48.35109375 -5.69677734 49.171875 C-6.43359375 51.1328125 -6.43359375 51.1328125 -7.43359375 53.1328125 C-12.34850238 52.69914409 -15.13538512 50.74513624 -18.43359375 47.1328125 C-18.17413351 41.4021646 -16.26074074 36.28543456 -14.30859375 30.953125 C-13.84815674 29.67307083 -13.84815674 29.67307083 -13.37841797 28.36715698 C-12.73265604 26.57598428 -12.0836752 24.78596914 -11.43164062 22.99707031 C-10.43004724 20.24807868 -9.43884596 17.49550677 -8.44921875 14.7421875 C-7.81961087 12.99978291 -7.18942321 11.25758769 -6.55859375 9.515625 C-6.26065918 8.68966827 -5.96272461 7.86371155 -5.65576172 7.01272583 C-3.15659329 0.17226994 -3.15659329 0.17226994 0 0 Z " fill="#D8323D" transform="translate(69.43359375,56.8671875)"/>
<path d="M0 0 C1.79244141 0.01740234 1.79244141 0.01740234 3.62109375 0.03515625 C5.41740234 0.04869141 5.41740234 0.04869141 7.25 0.0625 C8.17683594 0.07410156 9.10367188 0.08570313 10.05859375 0.09765625 C7.49261617 11.14223401 3.30241792 21.67486704 -0.62890625 32.28515625 C-1.33831225 34.21013113 -2.04730024 36.13526011 -2.75585938 38.06054688 C-4.4795573 42.74137522 -6.20891071 47.42007738 -7.94140625 52.09765625 C-12.06411693 51.59210796 -13.94175738 50.56786582 -16.75390625 47.53515625 C-17.66076172 46.57416016 -17.66076172 46.57416016 -18.5859375 45.59375 C-19.03324219 45.10003906 -19.48054688 44.60632813 -19.94140625 44.09765625 C-18.31051325 39.41861962 -16.67457903 34.74138618 -15.03417969 30.06567383 C-14.47814157 28.47858127 -13.92342513 26.89102496 -13.37011719 25.30297852 C-4.60436597 0.1528674 -4.60436597 0.1528674 0 0 Z " fill="#D8313D" transform="translate(28.94140625,171.90234375)"/>
<path d="M0 0 C0.45890625 0.39832031 0.9178125 0.79664063 1.390625 1.20703125 C4.52271585 3.91142062 7.63877459 6.57991771 11 9 C10.7834375 9.6290625 10.566875 10.258125 10.34375 10.90625 C8.52889788 16.48523984 7.21859464 21.13945976 8 27 C10.40339193 30.93282316 12.41937882 33.08920844 16.8125 34.375 C17.864375 34.58125 18.91625 34.7875 20 35 C13.43434398 39.37710402 5.85417965 41.24952858 -2 40 C-5.50252011 37.95686327 -7.77361702 35.90212767 -9 32 C-9.82641645 24.79125889 -7.02083358 18.72037727 -4.5 12.0625 C-4.07074219 10.90169922 -3.64148438 9.74089844 -3.19921875 8.54492188 C-2.14284196 5.69270454 -1.07621363 2.84477865 0 0 Z " fill="#E9A762" transform="translate(9,216)"/>
<path d="M0 0 C2.69367302 1.08582168 3.11420367 2.18067983 4.265625 4.8125 C6.15769616 9.53516967 6.94932803 13.77240913 6.015625 18.8125 C3.22910194 24.38554611 -0.93766685 27.84110061 -6.109375 31.1875 C-8.54850333 32.00054278 -9.61030231 31.7841282 -11.984375 30.8125 C-15.14605117 25.71868839 -16.88184031 19.75820766 -15.984375 13.8125 C-13.59226909 8.13124847 -7.02043085 -0.6633478 0 0 Z " fill="#B7E446" transform="translate(128.984375,90.1875)"/>
<path d="M0 0 C7.13940805 0.16092928 12.54158657 1.18301303 18 6 C22.33006726 11.3043324 22.42054681 15.68241936 22.3359375 22.42578125 C22 25 22 25 20 27 C13.88749407 27.38044643 7.95364566 25.54152043 3 22 C-1.99137462 15.98475366 -2.36391875 10.52098747 -2 3 C-1.34 2.01 -0.68 1.02 0 0 Z " fill="#B7E446" transform="translate(157,130)"/>
<path d="M0 0 C3.84740968 0.56419612 6.41398441 1.63320248 9.625 3.8125 C10.38039063 4.31394531 11.13578125 4.81539062 11.9140625 5.33203125 C15.22136011 7.97663065 16.82740451 9.70553379 17.3984375 13.98828125 C17.35311885 20.41597711 17.159194 25.33977743 14 31 C7.53288513 30.3840843 3.35021362 27.76738468 -0.8125 22.875 C-4.37035629 18.19896031 -4.68628236 14.77546716 -4 9 C-2.91635322 5.85789755 -1.5542657 2.93506424 0 0 Z " fill="#B7E446" transform="translate(61,135)"/>
<path d="M0 0 C4.14192655 2.07096328 8.07307702 4.54567314 12 7 C10.02 12.94 8.04 18.88 6 25 C-0.93 24.505 -0.93 24.505 -8 24 C-5.65868652 15.86701635 -2.89754422 7.94820431 0 0 Z " fill="#E9A762" transform="translate(75,33)"/>
<path d="M0 0 C0.74258894 2.7167888 1.08222926 5.0196428 1.3125 7.875 C1.86094446 12.15922558 3.0764051 14.71095574 6 18 C8.89289061 19.90457211 11.88546166 21.49083181 15 23 C15.66 23.33 16.32 23.66 17 24 C16.67 25.65 16.34 27.3 16 29 C14 29.8125 14 29.8125 11 30 C4.90917281 27.37210278 -0.02026445 22.95947111 -3 17 C-3.68717543 10.63041237 -2.54104642 5.82323138 0 0 Z " fill="#ADD543" transform="translate(60,136)"/>
<path d="M0 0 C0.33 0 0.66 0 1 0 C1.09796875 0.59167969 1.1959375 1.18335938 1.296875 1.79296875 C2.246509 6.81129323 3.11085299 10.42618923 7 14 C12.00401224 16.69446813 16.43254875 17.51162708 22 18 C22.625 20.375 22.625 20.375 23 23 C21 25 21 25 19.1171875 25.1171875 C11.95091261 24.34312993 6.27661599 22.74361414 1.5625 17.0625 C-1.18684218 11.67378932 -1.19820735 6.9462205 -1 1 C-0.67 0.67 -0.34 0.34 0 0 Z " fill="#AED544" transform="translate(156,132)"/>
<path d="M0 0 C0.33 0 0.66 0 1 0 C1.20496094 0.84304687 1.40992187 1.68609375 1.62109375 2.5546875 C1.89050781 3.65039062 2.15992187 4.74609375 2.4375 5.875 C2.83775391 7.51082031 2.83775391 7.51082031 3.24609375 9.1796875 C3.8786478 11.92484721 3.8786478 11.92484721 5 14 C10.38348037 13.36664937 14.20910893 10.79089107 18 7 C18.40047444 4.67724823 18.7397104 2.34260643 19 0 C19.33 0 19.66 0 20 0 C20.37034447 4.62930592 20.48658988 8.02682024 18.375 12.25 C14.96568245 16.19763085 11.06299467 20.31233511 6 22 C4.0234375 21.828125 4.0234375 21.828125 2 21 C-1.20436292 15.8374153 -2.72468632 10.03905264 -2 4 C-1 1.5625 -1 1.5625 0 0 Z " fill="#B0D545" transform="translate(115,100)"/>
</svg>
